<?xml version="1.0" encoding="UTF-8"?>
<svg xmlns="http://www.w3.org/2000/svg" xmlns:xlink="http://www.w3.org/1999/xlink" viewBox="0 0 100 100" width="100px" height="100px">
<g id="surface195142638">
<path style=" stroke:none;fill-rule:nonzero;fill:rgb(58.823532%,50.196081%,100%);fill-opacity:1;" d="M 15.625 15.625 L 15.625 84.375 L 84.375 84.375 L 84.375 15.625 Z M 21.875 21.875 L 78.125 21.875 L 78.125 78.125 L 21.875 78.125 Z M 63.261719 46.875 C 58.808594 46.875 55.933594 49.726562 55.933594 53.496094 C 55.933594 57.59375 58.335938 59.550781 61.957031 61.097656 L 63.207031 61.632812 C 65.496094 62.644531 66.859375 63.230469 66.859375 64.953125 C 66.859375 66.40625 65.523438 67.449219 63.445312 67.449219 C 60.984375 67.449219 59.582031 66.144531 58.515625 64.390625 L 54.417969 66.734375 C 55.871094 69.644531 58.898438 71.875 63.5625 71.875 C 68.3125 71.875 71.875 69.410156 71.875 64.898438 C 71.875 60.683594 69.46875 58.808594 65.191406 57 L 63.945312 56.464844 C 61.78125 55.511719 60.859375 54.890625 60.859375 53.40625 C 60.859375 52.1875 61.777344 51.238281 63.261719 51.238281 C 64.71875 51.238281 65.636719 51.863281 66.496094 53.40625 L 70.421875 50.886719 C 68.761719 47.976562 66.46875 46.875 63.261719 46.875 Z M 44.984375 47.175781 L 44.984375 64.246094 C 44.984375 66.738281 43.914062 67.390625 42.277344 67.390625 C 40.558594 67.390625 39.816406 66.203125 39.042969 64.808594 L 34.949219 67.273438 C 36.136719 69.796875 38.476562 71.875 42.488281 71.875 C 46.941406 71.875 50 69.496094 50 64.300781 L 50 47.175781 Z M 44.984375 47.175781 "/>
</g>
</svg>
