<svg xmlns="http://www.w3.org/2000/svg" viewBox="0 0 1113.05 1144.82"><defs><style>.cls-1{fill:#e76d6c;}.cls-2{fill:#222633;}</style></defs><g id="Layer_2" data-name="Layer 2"><path class="cls-1" d="M798.41,594.68C779.12,587,746.68,577,712.08,579c-88,5.05-59.08-35.75-.1-32,34.66,2.17,103.21-7.85,101.6-23.18a254.11,254.11,0,0,0-69-132.34,23.23,23.23,0,0,0-29.19-2.94c-17.45,11.29-44.28,31.88-62.68,61.1-47,74.63-63.39,27.37-26.15-18.51,14.31-17.63,32.4-49.54,39.46-71.64a22.57,22.57,0,0,0-13.56-27.91c-24.88-9.39-45.81-14.51-73.28-15.48a4.57,4.57,0,0,0-4.73,4.53c0,1.51.09,3.16.09,5.53V814.33c0,4.6,0,5.14,0,8.92a2.48,2.48,0,0,0,2.34,2.15c11.53,0,53-7.93,79-18a22.86,22.86,0,0,0,14-26.1c-4.32-20.32-14-52.75-34.72-80.38-52.95-70.52-2.94-69,26.63-17.82,17.62,30.49,66.1,83.05,77.14,71.3a254.29,254.29,0,0,0,73.83-133.61A23.27,23.27,0,0,0,798.41,594.68Z"/><path class="cls-2" d="M533.4,319.37c-1.88,0-3.74-.12-5.62-.12-3.59,0-7.14.18-10.7.33A257.81,257.81,0,0,0,300.81,547.79,258.21,258.21,0,0,0,438.2,802.65a256.17,256.17,0,0,0,76.48,25.56c4.85.26,9.71.53,14.63.52,1.5,0,3-.09,4.47-.12a11.86,11.86,0,0,0,6.27-10.45V330A11.83,11.83,0,0,0,533.4,319.37Z"/></g></svg>